<?xml version="1.0" standalone="no"?>
<!DOCTYPE svg PUBLIC "-//W3C//DTD SVG 20010904//EN"
 "http://www.w3.org/TR/2001/REC-SVG-20010904/DTD/svg10.dtd">
<svg version="1.0" xmlns="http://www.w3.org/2000/svg"
 width="700.000000pt" height="700.000000pt" viewBox="0 0 700.000000 700.000000"
 preserveAspectRatio="xMidYMid meet">
<metadata>
Created by potrace 1.11, written by Peter Selinger 2001-2013
</metadata>
<g transform="translate(0.000000,700.000000) scale(0.100000,-0.100000)"
fill="#000000" stroke="none">
<path d="M3462 6654 c-22 -60 -102 -269 -177 -464 -75 -195 -181 -474 -237
-620 -55 -146 -106 -278 -113 -295 -7 -16 -25 -64 -40 -105 -16 -41 -32 -82
-36 -91 -7 -14 -66 9 -401 158 -216 96 -505 224 -643 285 -137 61 -268 118
-290 129 -137 63 -310 135 -313 130 -1 -4 14 -43 34 -87 49 -109 64 -141 124
-279 29 -66 65 -148 81 -182 15 -34 58 -131 95 -215 36 -84 78 -178 91 -208
14 -30 66 -147 115 -260 50 -113 102 -230 115 -260 53 -116 63 -144 56 -150
-4 -4 -51 -23 -103 -43 -193 -71 -586 -219 -605 -228 -22 -10 -604 -229 -705
-265 -36 -13 -74 -28 -85 -33 -11 -6 -40 -17 -65 -25 -25 -8 -61 -21 -80 -29
l-35 -15 25 -10 c14 -6 160 -63 325 -127 165 -64 356 -138 425 -165 69 -27
256 -99 415 -160 160 -62 304 -118 320 -125 17 -7 63 -25 102 -40 40 -14 75
-30 77 -33 2 -4 -7 -29 -19 -57 -13 -27 -33 -72 -45 -100 -12 -27 -33 -75 -47
-105 -14 -30 -60 -134 -103 -230 -93 -209 -122 -275 -161 -358 -16 -34 -29
-64 -29 -66 0 -3 -18 -44 -40 -91 -22 -47 -40 -88 -40 -90 0 -2 -16 -39 -36
-82 -20 -43 -62 -136 -94 -208 -32 -71 -72 -160 -88 -197 l-31 -67 47 18 c26
11 119 51 207 91 88 39 176 78 195 87 19 8 53 23 75 33 22 10 180 80 350 155
171 76 338 150 373 166 35 16 65 29 67 29 2 0 32 13 67 29 177 82 268 119 273
111 3 -4 21 -50 40 -102 20 -51 40 -102 45 -113 10 -20 289 -741 407 -1050 35
-93 70 -183 78 -200 7 -16 27 -70 46 -119 l33 -88 28 73 c40 103 167 439 223
589 25 69 50 134 55 145 5 11 59 153 120 315 61 162 115 304 120 315 5 11 28
73 52 137 24 65 47 118 51 118 4 0 209 -91 455 -201 246 -111 497 -223 557
-251 61 -27 119 -53 130 -58 87 -40 197 -90 234 -106 25 -10 94 -42 155 -70
61 -28 112 -50 114 -49 3 3 -59 145 -201 460 -30 66 -93 207 -141 314 -48 107
-102 227 -121 266 -18 40 -48 106 -65 146 -18 41 -45 101 -60 134 -66 142
-149 329 -147 331 1 1 115 45 252 97 138 52 493 188 790 302 297 114 564 216
594 227 37 14 50 23 40 28 -8 4 -194 76 -414 159 -220 84 -409 156 -420 161
-11 5 -110 42 -220 84 -110 41 -283 107 -385 146 -102 40 -195 74 -207 77 -13
3 -23 8 -23 11 0 5 183 418 271 610 16 35 29 65 29 67 0 2 16 39 36 82 20 43
72 159 116 258 43 99 86 196 95 215 102 222 181 406 174 408 -4 1 -37 -10 -72
-27 -35 -16 -170 -75 -299 -131 -129 -56 -259 -113 -288 -126 -29 -13 -80 -36
-115 -50 -34 -15 -80 -35 -102 -45 -22 -10 -203 -90 -403 -178 -351 -154 -364
-158 -372 -138 -5 12 -45 117 -89 232 -43 116 -138 368 -211 560 -73 193 -168
445 -212 560 -43 116 -89 236 -102 269 l-23 58 -41 -108z m-74 -2474 l-3 -400
-565 565 c-311 311 -554 562 -540 557 14 -6 46 -19 70 -30 158 -73 702 -312
709 -312 5 0 15 17 23 38 8 20 80 206 159 411 l144 375 3 -402 c1 -221 1 -582
0 -802z m309 1015 c182 -489 238 -635 244 -635 7 0 739 319 793 345 19 10 25
11 18 2 -6 -6 -260 -263 -566 -570 -439 -441 -556 -553 -557 -535 -5 103 -3
1565 2 1560 4 -4 33 -79 66 -167z m-1044 -1021 c282 -282 522 -523 534 -536
l22 -23 -779 0 c-428 0 -781 3 -784 5 -2 3 175 73 394 155 361 136 399 152
393 170 -7 22 -267 612 -319 725 l-35 75 31 -30 c18 -16 262 -260 543 -541z
m2221 460 c-19 -43 -42 -92 -49 -109 -7 -16 -26 -57 -40 -90 -15 -33 -42 -94
-60 -135 -18 -41 -46 -104 -63 -140 -51 -111 -103 -233 -100 -235 2 -1 95 -37
208 -79 113 -43 243 -93 290 -111 47 -18 131 -50 188 -70 56 -21 102 -41 102
-45 0 -5 -1541 -6 -1546 -1 -1 0 246 250 550 554 303 303 552 549 554 546 1
-3 -14 -41 -34 -85z m-1654 -1257 c0 -1 -254 -256 -565 -567 -432 -432 -562
-556 -550 -527 9 21 30 68 47 105 17 37 90 201 163 365 130 290 133 298 112
308 -21 8 -139 54 -607 235 -107 42 -197 78 -199 80 -2 2 356 4 797 4 441 0
802 -1 802 -3z m2157 -4 c-2 -1 -45 -18 -97 -38 -52 -19 -104 -39 -115 -45
-11 -5 -105 -41 -210 -80 -104 -39 -203 -77 -220 -84 -16 -7 -65 -26 -107 -41
l-77 -27 13 -32 c16 -36 108 -241 138 -306 11 -25 28 -63 38 -85 9 -22 27 -62
40 -90 62 -135 128 -285 126 -285 -1 0 -1101 1100 -1114 1114 -1 2 355 3 792
3 437 -1 794 -2 793 -4z m-1987 -970 c0 -438 -2 -795 -4 -792 -6 7 -66 153
-66 162 0 4 -8 27 -19 50 -10 23 -28 69 -40 102 -13 33 -28 74 -36 90 -7 17
-41 104 -75 195 -35 91 -69 177 -76 192 l-14 26 -37 -18 c-21 -10 -101 -46
-178 -80 -77 -34 -168 -75 -203 -91 -35 -16 -66 -29 -68 -29 -3 0 -26 -10 -52
-21 -129 -60 -181 -83 -222 -101 -38 -16 44 70 520 547 311 311 566 565 567
565 1 0 3 -359 3 -797z m798 242 c305 -305 551 -555 548 -555 -5 0 -49 19
-184 81 -35 16 -65 29 -67 29 -2 0 -36 15 -77 34 -104 48 -376 171 -422 190
-23 10 -43 13 -49 7 -8 -8 -22 -43 -116 -301 -23 -63 -46 -124 -51 -135 -5
-11 -37 -94 -71 -185 -33 -91 -64 -168 -67 -172 -4 -4 -7 346 -7 777 0 432 2
785 5 785 3 0 254 -250 558 -555z"/>
</g>
</svg>
