<?xml version="1.0" standalone="no"?>
<!DOCTYPE svg PUBLIC "-//W3C//DTD SVG 20010904//EN"
 "http://www.w3.org/TR/2001/REC-SVG-20010904/DTD/svg10.dtd">
<svg version="1.0" xmlns="http://www.w3.org/2000/svg"
 width="358.000000pt" height="372.000000pt" viewBox="0 0 358.000000 372.000000"
 preserveAspectRatio="xMidYMid meet">
<metadata>
Created by potrace 1.15, written by Peter Selinger 2001-2017
</metadata>
<g transform="translate(0.000000,372.000000) scale(0.100000,-0.100000)"
fill="#000000" stroke="none">
<path d="M1770 3399 c0 -6 -7 -17 -15 -25 -8 -9 -15 -26 -15 -39 0 -13 -4 -26
-9 -29 -5 -3 -11 -18 -14 -33 -7 -39 -30 -95 -44 -111 -7 -7 -13 -24 -13 -37
0 -13 -4 -27 -10 -30 -5 -3 -10 -19 -10 -34 0 -16 -7 -34 -15 -41 -8 -7 -15
-27 -15 -44 0 -17 -7 -40 -15 -50 -8 -11 -15 -30 -15 -43 0 -13 -4 -23 -10
-23 -5 0 -10 -11 -10 -24 0 -13 -7 -29 -15 -36 -8 -7 -15 -25 -15 -41 0 -15
-4 -30 -9 -33 -4 -3 -11 -24 -15 -46 -3 -22 -11 -40 -16 -40 -6 0 -10 -8 -10
-18 0 -34 -10 -34 -70 0 -8 4 -22 11 -30 14 -8 3 -60 27 -115 54 -55 26 -107
51 -115 54 -8 3 -28 15 -45 25 -16 11 -38 20 -48 20 -17 1 -50 16 -97 42 -8 5
-22 12 -30 15 -23 9 -161 74 -193 91 -36 19 -59 3 -39 -25 7 -9 16 -27 22 -40
36 -84 54 -123 76 -163 13 -26 24 -54 24 -62 0 -9 18 -50 40 -92 22 -42 40
-82 40 -90 0 -8 5 -15 10 -15 6 0 10 -8 10 -19 0 -10 7 -24 15 -31 8 -7 15
-20 15 -30 0 -10 7 -20 15 -24 8 -3 15 -14 15 -25 0 -11 5 -23 10 -26 6 -3 10
-16 10 -27 0 -11 6 -26 14 -32 8 -6 17 -26 21 -43 5 -26 3 -33 -9 -33 -9 0
-16 -4 -16 -9 0 -5 -18 -12 -40 -16 -22 -4 -42 -11 -46 -16 -3 -5 -14 -9 -25
-9 -10 0 -42 -11 -69 -24 -27 -13 -76 -32 -107 -41 -32 -9 -70 -23 -85 -31
-14 -8 -37 -14 -50 -14 -12 0 -32 -7 -42 -15 -11 -8 -28 -15 -37 -15 -10 0
-39 -11 -65 -25 -26 -14 -56 -25 -68 -25 -12 0 -30 -7 -40 -15 -11 -8 -27 -15
-36 -15 -9 0 -32 -8 -51 -17 l-34 -17 35 -9 c19 -5 39 -13 44 -18 6 -5 22 -9
37 -9 15 0 32 -7 39 -15 7 -8 21 -15 32 -15 11 0 34 -7 51 -16 60 -32 67 -34
91 -34 13 0 29 -7 36 -15 7 -8 24 -15 39 -15 14 0 35 -7 45 -15 11 -8 29 -15
40 -15 12 0 30 -7 40 -15 11 -8 30 -15 42 -15 13 0 26 -4 29 -10 3 -5 15 -10
26 -10 11 0 22 -7 25 -15 4 -9 19 -15 38 -15 17 0 40 -7 50 -15 11 -8 30 -15
42 -15 17 0 23 -7 26 -30 3 -18 -1 -35 -9 -41 -7 -6 -13 -20 -13 -30 0 -10 -5
-21 -10 -24 -6 -3 -10 -15 -10 -25 0 -25 -95 -212 -103 -204 -4 4 -7 -7 -7
-25 0 -19 -6 -34 -15 -37 -8 -4 -15 -17 -15 -30 0 -13 -4 -24 -10 -24 -5 0
-10 -8 -10 -19 0 -10 -7 -24 -15 -31 -8 -7 -15 -21 -15 -31 0 -11 -4 -19 -9
-19 -5 0 -12 -14 -16 -30 -4 -17 -11 -30 -16 -30 -5 0 -9 -9 -9 -21 0 -11 -7
-27 -15 -35 -8 -9 -15 -26 -15 -39 0 -13 -5 -27 -10 -30 -12 -8 -13 -52 -1
-59 5 -3 14 1 21 9 7 8 21 15 31 15 11 0 19 5 19 10 0 6 8 10 18 10 10 0 27 7
38 15 10 8 26 15 35 15 9 0 37 11 63 25 26 14 56 25 67 25 10 0 19 7 19 15 0
9 9 15 24 15 13 0 26 3 28 8 5 12 131 72 151 72 10 0 15 5 12 10 -3 5 3 10 14
10 11 0 26 7 35 15 8 8 19 15 24 15 5 0 30 11 56 25 26 14 58 25 71 25 13 0
27 5 30 10 12 19 23 10 20 -15 -1 -15 3 -25 10 -25 7 0 15 -10 18 -23 3 -12
15 -49 27 -82 11 -33 22 -68 24 -78 1 -9 8 -23 14 -29 7 -7 12 -20 12 -29 0
-9 7 -32 15 -52 8 -19 16 -49 17 -65 1 -17 6 -28 10 -26 4 3 8 -8 8 -25 0 -16
7 -37 16 -46 10 -10 14 -26 11 -41 -3 -16 1 -28 9 -31 8 -3 14 -16 14 -29 0
-15 6 -24 15 -24 18 0 20 -16 3 -23 -10 -4 -10 -6 0 -6 6 -1 12 -10 12 -21 0
-10 8 -24 18 -29 11 -7 13 -10 3 -11 -11 0 -11 -3 -1 -15 10 -12 10 -15 -4
-15 -13 0 -13 -3 4 -20 11 -11 20 -24 20 -30 0 -5 11 -10 25 -10 20 0 25 5 25
25 0 16 6 25 15 25 10 0 15 10 15 28 0 16 7 37 15 48 8 10 15 27 15 37 0 9 4
17 8 17 4 0 9 8 10 18 3 38 9 58 20 79 7 12 12 33 12 47 0 14 8 31 18 37 12 8
17 20 14 34 -2 13 1 26 7 29 6 4 11 20 11 35 0 16 7 34 15 41 8 7 15 25 15 41
0 15 4 30 9 33 9 6 35 80 46 133 3 18 11 35 16 38 5 4 9 19 9 34 0 20 6 30 20
34 13 3 20 0 20 -9 0 -12 19 -19 43 -15 4 0 7 -6 7 -14 0 -9 9 -15 24 -15 13
0 27 -7 30 -16 3 -8 10 -13 14 -10 5 3 18 -1 28 -9 10 -8 27 -15 37 -15 10 0
25 -7 33 -15 9 -8 26 -15 39 -15 19 0 23 -4 18 -17 -5 -13 -2 -15 15 -11 12 4
26 0 33 -8 6 -8 20 -14 30 -14 11 0 19 -4 19 -10 0 -5 16 -10 35 -10 36 0 48
-15 18 -23 -12 -3 -10 -5 7 -6 44 -2 70 -13 70 -28 0 -9 6 -13 15 -9 8 3 15 1
15 -4 0 -6 8 -10 18 -10 9 0 26 -7 36 -15 11 -8 31 -15 45 -15 18 0 22 -3 13
-9 -11 -7 -10 -10 3 -15 9 -3 28 -6 41 -6 17 0 24 -6 24 -19 0 -15 5 -17 32
-12 34 7 62 40 40 48 -6 3 -10 9 -6 14 3 5 -2 12 -10 15 -9 3 -16 15 -16 25 0
10 -4 19 -10 19 -5 0 -10 6 -10 14 0 8 -13 41 -30 73 -16 31 -30 63 -30 70 0
7 -4 13 -9 13 -5 0 -12 11 -15 25 -4 14 -11 25 -16 25 -6 0 -10 6 -10 13 0 7
-18 49 -40 93 -22 43 -40 85 -40 92 0 6 -4 12 -10 12 -5 0 -10 7 -10 16 0 19
-41 106 -54 115 -5 4 -6 14 -3 23 4 10 1 19 -8 22 -7 3 -17 19 -20 35 -4 16
-12 29 -18 29 -19 1 33 40 53 40 10 0 23 6 29 14 7 8 20 12 30 9 10 -2 25 3
34 11 8 9 31 16 50 16 22 0 37 6 41 15 3 9 18 15 35 15 16 0 33 5 36 10 3 6
18 10 33 10 15 0 36 7 46 15 11 8 28 15 37 15 10 0 19 5 21 11 2 6 19 12 38
13 18 1 35 7 38 14 2 6 18 12 35 12 18 0 41 7 51 15 11 8 30 15 42 15 13 0 26
5 29 10 3 6 19 10 34 10 16 0 34 7 41 15 7 8 21 15 31 15 52 0 14 58 -41 62
-17 1 -36 8 -42 15 -6 7 -25 13 -43 13 -20 0 -35 6 -39 15 -3 9 -18 15 -35 15
-16 0 -33 5 -36 10 -3 6 -16 10 -29 10 -12 0 -31 7 -42 15 -10 8 -29 15 -40
15 -12 0 -25 7 -28 16 -4 11 -13 14 -31 10 -18 -5 -30 -1 -41 13 -10 11 -24
16 -35 14 -10 -3 -30 2 -44 11 -13 9 -35 16 -49 16 -14 0 -27 4 -31 9 -3 5
-19 13 -37 16 -17 4 -51 18 -76 31 -25 13 -51 24 -58 24 -16 0 -19 16 -4 25 6
3 10 13 10 22 0 9 28 73 61 142 136 280 177 368 190 401 7 19 18 42 26 51 7 8
13 22 13 30 0 8 9 32 20 54 11 22 20 45 20 52 0 15 -21 17 -35 4 -6 -4 -32
-16 -60 -26 -27 -10 -87 -35 -131 -56 -45 -22 -86 -39 -91 -39 -6 0 -16 -7
-23 -15 -6 -8 -15 -14 -18 -13 -4 1 -69 -28 -145 -65 -76 -37 -147 -67 -158
-67 -10 0 -19 -4 -19 -10 0 -5 -8 -10 -19 -10 -10 0 -24 -7 -31 -16 -8 -9 -25
-14 -44 -12 -25 2 -32 8 -34 28 -3 22 -15 55 -43 112 -5 10 -9 25 -9 34 0 9
-6 28 -14 42 -16 31 -38 90 -55 147 -12 41 -33 95 -57 152 -8 17 -14 38 -14
46 0 9 -4 19 -10 22 -5 3 -10 16 -10 29 0 12 -7 31 -15 42 -8 10 -15 31 -15
46 0 15 -4 29 -9 33 -5 3 -12 19 -16 35 -6 28 -25 43 -25 19z m-79 -990 c1
-298 0 -319 -11 -319 -13 0 -327 307 -342 333 -5 10 -7 21 -4 24 9 9 83 -16
145 -49 30 -15 60 -28 67 -28 8 0 14 -5 14 -11 0 -26 42 41 53 86 5 20 23 71
38 110 4 11 10 33 14 49 15 71 25 -3 26 -195z m209 164 c0 -10 7 -31 15 -47 8
-15 15 -39 15 -51 0 -13 7 -25 15 -29 9 -3 15 -18 15 -34 0 -32 39 -77 47 -54
3 6 10 12 17 12 7 0 34 11 60 25 26 14 53 25 60 25 8 0 19 7 26 15 14 16 50
21 50 6 0 -5 -74 -85 -165 -177 -163 -165 -165 -166 -175 -140 -11 29 -14 405
-4 444 7 26 24 30 24 5z m-516 -440 c120 -121 172 -179 163 -185 -14 -9 -481
-11 -514 -2 -34 9 -28 22 12 30 19 3 38 10 41 15 3 5 18 9 34 9 16 0 35 7 44
15 8 8 23 15 34 15 18 0 82 27 82 35 0 3 -11 28 -24 57 -68 152 -79 188 -57
188 5 0 88 -80 185 -177z m986 156 c0 -9 -49 -120 -81 -181 -14 -28 -11 -58 7
-58 8 0 22 -7 30 -15 9 -8 26 -15 39 -15 14 0 44 -11 69 -25 25 -14 57 -25 71
-25 17 0 25 -5 23 -12 -6 -16 -484 -24 -507 -9 -11 7 26 49 158 180 94 94 176
171 181 171 6 0 10 -5 10 -11z m-1002 -529 c115 0 162 -3 162 -12 0 -14 -316
-328 -330 -328 -14 0 -12 22 5 44 8 11 15 28 15 38 0 10 3 18 8 18 10 0 42 82
45 116 2 23 -3 30 -28 37 -16 5 -38 13 -47 18 -10 5 -29 9 -42 9 -14 0 -31 7
-40 15 -8 8 -21 15 -29 15 -22 0 -47 11 -47 21 0 10 81 18 130 13 19 -2 108
-4 198 -4z m1132 -15 c0 -9 -9 -15 -25 -15 -14 0 -25 -4 -25 -10 0 -5 -10 -10
-23 -10 -13 0 -32 -7 -43 -15 -10 -8 -31 -15 -46 -15 -16 0 -34 -10 -47 -26
l-20 -26 31 -61 c17 -34 34 -72 39 -84 5 -13 14 -34 21 -48 6 -14 9 -28 6 -31
-3 -3 -85 73 -182 169 -96 96 -173 177 -169 181 3 3 114 6 245 6 205 0 238 -2
238 -15z m-808 -173 c0 -23 -1 -139 -1 -257 -1 -136 -5 -215 -11 -215 -5 0
-10 11 -10 24 0 13 -7 29 -15 36 -8 7 -15 25 -15 41 0 15 -4 30 -9 33 -5 3
-12 22 -15 41 -4 19 -11 35 -16 35 -6 0 -10 9 -10 20 0 30 -27 36 -64 15 -40
-24 -50 -29 -118 -59 -59 -27 -78 -31 -78 -18 0 4 59 65 130 136 72 71 130
131 130 133 0 9 86 82 94 80 5 -2 9 -22 8 -45z m370 -124 c92 -95 168 -177
168 -181 0 -4 -9 -3 -19 3 -11 5 -29 10 -41 10 -11 0 -23 7 -26 15 -4 8 -17
15 -30 15 -13 0 -24 5 -24 10 0 6 -8 10 -19 10 -10 0 -24 7 -31 15 -7 8 -19
15 -28 15 -19 0 -52 -29 -52 -46 0 -14 -22 -69 -46 -116 -8 -14 -14 -36 -14
-48 0 -11 -4 -18 -10 -15 -11 7 -14 485 -3 485 4 0 83 -78 175 -172z"/>
</g>
</svg>
